<svg width="140" height="140" viewBox="0 0 140 140" fill="none" xmlns="http://www.w3.org/2000/svg">
<rect x="0.5" y="0.5" width="139" height="139" rx="15.5" fill="white" stroke="#CFDBEA"/>
<path d="M69.9993 77.3333C71.666 77.3333 73.0827 76.75 74.2493 75.5833C75.416 74.4167 75.9993 73 75.9993 71.3333C75.9993 69.6667 75.416 68.25 74.2493 67.0833C73.0827 65.9167 71.666 65.3333 69.9993 65.3333C68.3327 65.3333 66.916 65.9167 65.7493 67.0833C64.5827 68.25 63.9993 69.6667 63.9993 71.3333C63.9993 73 64.5827 74.4167 65.7493 75.5833C66.916 76.75 68.3327 77.3333 69.9993 77.3333ZM69.9993 74.6667C69.066 74.6667 68.2771 74.3444 67.6327 73.7C66.9882 73.0556 66.666 72.2667 66.666 71.3333C66.666 70.4 66.9882 69.6111 67.6327 68.9667C68.2771 68.3222 69.066 68 69.9993 68C70.9327 68 71.7216 68.3222 72.366 68.9667C73.0105 69.6111 73.3327 70.4 73.3327 71.3333C73.3327 72.2667 73.0105 73.0556 72.366 73.7C71.7216 74.3444 70.9327 74.6667 69.9993 74.6667ZM59.3327 82C58.5993 82 57.9716 81.7389 57.4493 81.2167C56.9271 80.6944 56.666 80.0667 56.666 79.3333V63.3333C56.666 62.6 56.9271 61.9722 57.4493 61.45C57.9716 60.9278 58.5993 60.6667 59.3327 60.6667H63.5327L65.1993 58.8667C65.4438 58.6 65.7382 58.3889 66.0827 58.2333C66.4271 58.0778 66.7882 58 67.166 58H72.8327C73.2105 58 73.5716 58.0778 73.916 58.2333C74.2605 58.3889 74.5549 58.6 74.7994 58.8667L76.466 60.6667H80.666C81.3994 60.6667 82.0271 60.9278 82.5494 61.45C83.0716 61.9722 83.3327 62.6 83.3327 63.3333V79.3333C83.3327 80.0667 83.0716 80.6944 82.5494 81.2167C82.0271 81.7389 81.3994 82 80.666 82H59.3327Z" fill="#CFDBEA"/>
</svg>
